<svg width="151" height="48" viewBox="0 0 151 48" fill="none" xmlns="http://www.w3.org/2000/svg">
<g clip-path="url(#clip0_10211_22343)">
<path d="M4.86739 15.2097H3.31137C0.574153 15.2097 0.00317383 16.3523 0.00317383 17.3124V45.6762C0.00317383 46.6363 0.578511 47.7788 3.31137 47.7788H4.86739C7.6046 47.7788 8.17558 46.6363 8.17558 45.6762V17.3124C8.17558 16.3523 7.60025 15.2097 4.86739 15.2097Z" fill="#444445"/>
<path d="M36.2923 15.2542H35.0022C32.2649 15.2542 31.694 16.375 31.694 17.3133V32.0274C31.694 32.3315 31.694 32.6183 31.6983 32.8919C31.5327 32.6313 31.3627 32.375 31.184 32.123L21.1853 16.7529C20.8105 16.1534 20.3093 15.7451 19.6947 15.5322C19.1542 15.3454 18.4874 15.2542 17.7072 15.2542H15.7937C13.0565 15.2542 12.4855 16.375 12.4855 17.3133V45.6772C12.4855 46.6155 13.0609 47.7364 15.7937 47.7364H17.0839C19.8211 47.7364 20.3921 46.6155 20.3921 45.6772V30.7415C20.3921 30.4374 20.3921 30.1507 20.3877 29.8814C20.5533 30.142 20.7277 30.3983 20.902 30.6503L31.123 46.2376C31.4978 46.8371 31.9991 47.2455 32.618 47.4583C33.1585 47.6451 33.8253 47.7364 34.6055 47.7364H36.2967C39.0339 47.7364 39.6092 46.6155 39.6092 45.6772V17.3133C39.6092 16.375 39.0339 15.2542 36.2967 15.2542H36.2923Z" fill="#444445"/>
<path d="M64.8202 16.1904C64.5936 15.8038 64.1359 15.3433 63.2424 15.3433H46.3353C45.5377 15.3433 44.9318 15.5474 44.5265 15.9515C44.1211 16.3555 43.9163 16.9637 43.9163 17.7543V45.6751C43.9163 46.6134 44.4916 47.7342 47.2288 47.7342H48.7413C51.4785 47.7342 52.0538 46.6134 52.0538 45.6751V34.7057H61.8171C62.7106 34.7057 63.1683 34.2452 63.3949 33.8543C63.6608 33.3938 63.7916 32.7378 63.7916 31.8472V30.4744C63.7916 29.5838 63.6608 28.9278 63.3906 28.4673C63.1639 28.0807 62.7063 27.6202 61.8128 27.6202H52.0494V22.4288H63.2467C64.1403 22.4288 64.5979 21.9683 64.8246 21.5773C65.0948 21.1168 65.2212 20.4608 65.2212 19.5703V18.1975C65.2212 17.3069 65.0904 16.6509 64.8202 16.1904Z" fill="#444445"/>
<path d="M117.223 32.7163C116.386 31.4435 115.383 30.453 114.237 29.7709C113.147 29.1236 111.731 28.4329 110.031 27.7161C108.898 27.2252 108.026 26.8211 107.45 26.517C106.936 26.2477 106.496 25.8915 106.134 25.457C105.816 25.0704 105.659 24.5795 105.659 23.9583C105.659 23.5064 105.881 23.1024 106.339 22.7245C106.675 22.4464 107.433 22.1206 109.15 22.1206C110.227 22.1206 111.277 22.2857 112.271 22.6159C112.493 22.6984 112.764 22.8114 113.095 22.9547C113.531 23.1459 113.836 23.2284 114.084 23.2284C114.616 23.2284 115.126 22.9287 115.645 22.3118C116.067 21.8078 116.429 21.2083 116.721 20.535C117.026 19.8268 117.175 19.236 117.175 18.7321C117.175 18.0457 116.756 17.394 115.924 16.7902C115.152 16.2428 114.097 15.7997 112.799 15.4739C111.521 15.1524 110.087 14.9873 108.527 14.9873C106.618 14.9873 104.8 15.3218 103.131 15.9865C101.423 16.6642 100.019 17.7372 98.9599 19.1709C97.8877 20.6218 97.3472 22.4421 97.3472 24.5795C97.3472 27.1426 97.9356 29.1627 99.0907 30.5876C100.215 31.9691 101.771 33.1421 103.715 34.0631L105.794 34.9667C107.429 35.6227 108.619 36.2178 109.325 36.7304C109.917 37.1605 110.192 37.7036 110.192 38.4508C110.192 39.6628 109.682 40.0929 109.294 40.3101C108.579 40.7098 107.69 40.914 106.653 40.914C105.69 40.914 104.848 40.7924 104.151 40.5491C103.414 40.2928 102.573 39.9365 101.658 39.4804C100.734 38.9808 100.372 38.8765 100.115 38.8765C99.6224 38.8765 99.1212 39.1676 98.5328 39.7888C98.049 40.3014 97.6262 40.901 97.2775 41.57C96.8983 42.2911 96.7152 42.908 96.7152 43.4641C96.7152 44.2461 97.2252 44.9889 98.232 45.671C99.1822 46.3617 100.494 46.9308 102.129 47.3609C103.746 47.7867 105.655 48.0039 107.808 48.0039C109.634 48.0039 111.365 47.6563 112.955 46.9786C114.577 46.2835 115.919 45.1453 116.948 43.5988C117.977 42.0522 118.5 40.0538 118.5 37.6601C118.5 35.6835 118.068 34.0196 117.218 32.7207L117.223 32.7163Z" fill="#444445"/>
<path d="M143.547 41.409C143.32 41.0223 142.862 40.5575 141.969 40.5575H129.752V34.658H140.727C141.62 34.658 142.078 34.1975 142.305 33.8065C142.575 33.346 142.701 32.69 142.701 31.7994V30.4266C142.701 29.536 142.57 28.8801 142.3 28.4196C142.074 28.0329 141.616 27.5724 140.722 27.5724H129.747V22.4288H141.921C142.814 22.4288 143.272 21.9683 143.499 21.5773C143.769 21.1168 143.895 20.4608 143.895 19.5703V18.1975C143.895 17.3069 143.765 16.6509 143.494 16.1904C143.268 15.8038 142.81 15.3433 141.917 15.3433H124.029C123.231 15.3433 122.625 15.5474 122.22 15.9515C121.815 16.3555 121.61 16.9637 121.61 17.7543V45.2319C121.61 46.0269 121.815 46.6308 122.22 47.0348C122.625 47.4388 123.236 47.643 124.033 47.643H141.965C142.858 47.643 143.316 47.1825 143.542 46.7915C143.813 46.331 143.939 45.6751 143.939 44.7845V43.4117C143.939 42.5211 143.808 41.8651 143.538 41.4046L143.547 41.409Z" fill="#444445"/>
<path d="M90.5426 15.251H89.0737C86.3365 15.251 85.7611 16.3718 85.7611 17.3102V34.7264C85.7611 35.1435 85.7699 35.4867 85.7611 35.7908V36.4381C85.7611 36.4945 85.7611 36.5467 85.7611 36.6031C85.7611 39.0881 83.7431 41.0995 81.25 41.0995C78.7569 41.0995 76.7388 39.0881 76.7388 36.6031V35.9732C76.7301 35.6561 76.7388 35.3172 76.7388 34.948V28.4489V17.3015C76.7344 16.3675 76.1504 15.2597 73.4306 15.2597H71.9182C69.181 15.2597 68.61 16.3805 68.61 17.3189V36.6422C68.61 40.2219 69.826 43.0501 72.2189 45.0441C74.7774 47.1771 77.3054 48.0069 81.2282 48.0069C85.1509 48.0069 87.6789 47.1771 90.2375 45.0441C92.6347 43.0501 93.8464 40.2219 93.8464 36.6422V17.3189C93.8464 16.3805 93.2711 15.2597 90.5338 15.2597L90.5426 15.251Z" fill="#444445"/>
<path d="M70.3989 9.05349H46.3306C44.5523 9.05349 43.6109 7.61987 44.2254 5.84741C45.3456 2.6196 48.8761 0 52.1189 0H76.1872C77.9655 0 78.907 1.43361 78.2924 3.20608C77.1722 6.43389 73.6417 9.05349 70.3989 9.05349Z" fill="#1D3E70"/>
<path d="M142.921 9.05349H118.853C117.074 9.05349 116.133 7.61987 116.748 5.84741C117.868 2.6196 121.398 0 124.641 0H148.709C150.488 0 151.429 1.43361 150.814 3.20608C149.694 6.43389 146.164 9.05349 142.921 9.05349Z" fill="#2194D2"/>
<path d="M106.657 9.05349H82.5885C80.8102 9.05349 79.8687 7.61987 80.4833 5.84741C81.6035 2.6196 85.1339 0 88.3767 0H112.445C114.223 0 115.165 1.43361 114.55 3.20608C113.43 6.43389 109.9 9.05349 106.657 9.05349Z" fill="#0860A8"/>
</g>
<defs>
<clipPath id="clip0_10211_22343">
<rect width="151" height="48" fill="white"/>
</clipPath>
</defs>
</svg>
